<?xml version="1.0" encoding="UTF-8"?>
<svg xmlns="http://www.w3.org/2000/svg" xmlns:xlink="http://www.w3.org/1999/xlink" width="150px" height="91px" viewBox="0 0 149 91" version="1.1">
<defs>
<linearGradient id="linear0" gradientUnits="userSpaceOnUse" x1="85.48" y1="71.85" x2="164.3" y2="71.85" gradientTransform="matrix(0.906271,0,0,0.907731,0.0498449,0)">
<stop offset="0.22" style="stop-color:rgb(97.254902%,90.196078%,49.019608%);stop-opacity:1;"/>
<stop offset="0.27" style="stop-color:rgb(95.686275%,87.843137%,46.666667%);stop-opacity:1;"/>
<stop offset="0.34" style="stop-color:rgb(90.980392%,81.568627%,40.784314%);stop-opacity:1;"/>
<stop offset="0.41" style="stop-color:rgb(83.921569%,71.372549%,30.980392%);stop-opacity:1;"/>
<stop offset="0.45" style="stop-color:rgb(78.823529%,63.921569%,23.921569%);stop-opacity:1;"/>
<stop offset="0.63" style="stop-color:rgb(87.45098%,76.470588%,36.078431%);stop-opacity:1;"/>
<stop offset="0.84" style="stop-color:rgb(97.254902%,90.196078%,49.019608%);stop-opacity:1;"/>
<stop offset="0.86" style="stop-color:rgb(95.686275%,87.843137%,46.666667%);stop-opacity:1;"/>
<stop offset="0.9" style="stop-color:rgb(91.372549%,81.960784%,40.392157%);stop-opacity:1;"/>
<stop offset="0.94" style="stop-color:rgb(84.705882%,72.54902%,29.803922%);stop-opacity:1;"/>
<stop offset="0.98" style="stop-color:rgb(75.686275%,59.215686%,15.686275%);stop-opacity:1;"/>
<stop offset="1" style="stop-color:rgb(70.588235%,52.156863%,7.843137%);stop-opacity:1;"/>
</linearGradient>
<linearGradient id="linear1" gradientUnits="userSpaceOnUse" x1="85.48" y1="85.93" x2="152.04" y2="85.93" gradientTransform="matrix(0.906271,0,0,0.907731,0.0498449,0)">
<stop offset="0.22" style="stop-color:rgb(97.254902%,90.196078%,49.019608%);stop-opacity:1;"/>
<stop offset="0.27" style="stop-color:rgb(95.686275%,87.843137%,46.666667%);stop-opacity:1;"/>
<stop offset="0.34" style="stop-color:rgb(90.980392%,81.568627%,40.784314%);stop-opacity:1;"/>
<stop offset="0.41" style="stop-color:rgb(83.921569%,71.372549%,30.980392%);stop-opacity:1;"/>
<stop offset="0.45" style="stop-color:rgb(78.823529%,63.921569%,23.921569%);stop-opacity:1;"/>
<stop offset="0.63" style="stop-color:rgb(87.45098%,76.470588%,36.078431%);stop-opacity:1;"/>
<stop offset="0.84" style="stop-color:rgb(97.254902%,90.196078%,49.019608%);stop-opacity:1;"/>
<stop offset="0.86" style="stop-color:rgb(95.686275%,87.843137%,46.666667%);stop-opacity:1;"/>
<stop offset="0.9" style="stop-color:rgb(91.372549%,81.960784%,40.392157%);stop-opacity:1;"/>
<stop offset="0.94" style="stop-color:rgb(84.705882%,72.54902%,29.803922%);stop-opacity:1;"/>
<stop offset="0.98" style="stop-color:rgb(75.686275%,59.215686%,15.686275%);stop-opacity:1;"/>
<stop offset="1" style="stop-color:rgb(70.588235%,52.156863%,7.843137%);stop-opacity:1;"/>
</linearGradient>
<linearGradient id="linear2" gradientUnits="userSpaceOnUse" x1="0" y1="71.85" x2="78.82" y2="71.85" gradientTransform="matrix(0.906271,0,0,0.907731,0.0498449,0)">
<stop offset="0.22" style="stop-color:rgb(97.254902%,90.196078%,49.019608%);stop-opacity:1;"/>
<stop offset="0.27" style="stop-color:rgb(95.686275%,87.843137%,46.666667%);stop-opacity:1;"/>
<stop offset="0.34" style="stop-color:rgb(90.980392%,81.568627%,40.784314%);stop-opacity:1;"/>
<stop offset="0.41" style="stop-color:rgb(83.921569%,71.372549%,30.980392%);stop-opacity:1;"/>
<stop offset="0.45" style="stop-color:rgb(78.823529%,63.921569%,23.921569%);stop-opacity:1;"/>
<stop offset="0.63" style="stop-color:rgb(87.45098%,76.470588%,36.078431%);stop-opacity:1;"/>
<stop offset="0.84" style="stop-color:rgb(97.254902%,90.196078%,49.019608%);stop-opacity:1;"/>
<stop offset="0.86" style="stop-color:rgb(95.686275%,87.843137%,46.666667%);stop-opacity:1;"/>
<stop offset="0.9" style="stop-color:rgb(91.372549%,81.960784%,40.392157%);stop-opacity:1;"/>
<stop offset="0.94" style="stop-color:rgb(84.705882%,72.54902%,29.803922%);stop-opacity:1;"/>
<stop offset="0.98" style="stop-color:rgb(75.686275%,59.215686%,15.686275%);stop-opacity:1;"/>
<stop offset="1" style="stop-color:rgb(70.588235%,52.156863%,7.843137%);stop-opacity:1;"/>
</linearGradient>
<linearGradient id="linear3" gradientUnits="userSpaceOnUse" x1="12.26" y1="85.93" x2="78.82" y2="85.93" gradientTransform="matrix(0.906271,0,0,0.907731,0.0498449,0)">
<stop offset="0.22" style="stop-color:rgb(97.254902%,90.196078%,49.019608%);stop-opacity:1;"/>
<stop offset="0.27" style="stop-color:rgb(95.686275%,87.843137%,46.666667%);stop-opacity:1;"/>
<stop offset="0.34" style="stop-color:rgb(90.980392%,81.568627%,40.784314%);stop-opacity:1;"/>
<stop offset="0.41" style="stop-color:rgb(83.921569%,71.372549%,30.980392%);stop-opacity:1;"/>
<stop offset="0.45" style="stop-color:rgb(78.823529%,63.921569%,23.921569%);stop-opacity:1;"/>
<stop offset="0.63" style="stop-color:rgb(87.45098%,76.470588%,36.078431%);stop-opacity:1;"/>
<stop offset="0.84" style="stop-color:rgb(97.254902%,90.196078%,49.019608%);stop-opacity:1;"/>
<stop offset="0.86" style="stop-color:rgb(95.686275%,87.843137%,46.666667%);stop-opacity:1;"/>
<stop offset="0.9" style="stop-color:rgb(91.372549%,81.960784%,40.392157%);stop-opacity:1;"/>
<stop offset="0.94" style="stop-color:rgb(84.705882%,72.54902%,29.803922%);stop-opacity:1;"/>
<stop offset="0.98" style="stop-color:rgb(75.686275%,59.215686%,15.686275%);stop-opacity:1;"/>
<stop offset="1" style="stop-color:rgb(70.588235%,52.156863%,7.843137%);stop-opacity:1;"/>
</linearGradient>
<linearGradient id="linear4" gradientUnits="userSpaceOnUse" x1="49.08" y1="33.16" x2="115.22" y2="33.16" gradientTransform="matrix(0.906271,0,0,0.907731,0.0498449,0)">
<stop offset="0.22" style="stop-color:rgb(97.254902%,90.196078%,49.019608%);stop-opacity:1;"/>
<stop offset="0.27" style="stop-color:rgb(95.686275%,87.843137%,46.666667%);stop-opacity:1;"/>
<stop offset="0.34" style="stop-color:rgb(90.980392%,81.568627%,40.784314%);stop-opacity:1;"/>
<stop offset="0.41" style="stop-color:rgb(83.921569%,71.372549%,30.980392%);stop-opacity:1;"/>
<stop offset="0.45" style="stop-color:rgb(78.823529%,63.921569%,23.921569%);stop-opacity:1;"/>
<stop offset="0.63" style="stop-color:rgb(87.45098%,76.470588%,36.078431%);stop-opacity:1;"/>
<stop offset="0.84" style="stop-color:rgb(97.254902%,90.196078%,49.019608%);stop-opacity:1;"/>
<stop offset="0.86" style="stop-color:rgb(95.686275%,87.843137%,46.666667%);stop-opacity:1;"/>
<stop offset="0.9" style="stop-color:rgb(91.372549%,81.960784%,40.392157%);stop-opacity:1;"/>
<stop offset="0.94" style="stop-color:rgb(84.705882%,72.54902%,29.803922%);stop-opacity:1;"/>
<stop offset="0.98" style="stop-color:rgb(75.686275%,59.215686%,15.686275%);stop-opacity:1;"/>
<stop offset="1" style="stop-color:rgb(70.588235%,52.156863%,7.843137%);stop-opacity:1;"/>
</linearGradient>
</defs>
<g id="surface1">
<path style=" stroke:none;fill-rule:nonzero;fill:url(#linear0);" d="M 77.519531 73 L 77.519531 78.21875 C 88.773438 70.523438 112.480469 57.703125 141.546875 61.480469 L 148.949219 54.046875 C 108.441406 44.96875 77.519531 73.007812 77.519531 73.007812 "/>
<path style=" stroke:none;fill-rule:nonzero;fill:url(#linear1);" d="M 77.519531 85.78125 L 77.519531 91 C 87.167969 84.390625 105.984375 74.035156 129.484375 73.597656 L 137.839844 65.203125 C 102.921875 62.761719 77.507812 85.789062 77.507812 85.789062 "/>
<path style=" stroke:none;fill-rule:nonzero;fill:url(#linear2);" d="M 0.0507812 54.039062 L 7.453125 61.472656 C 36.519531 57.695312 60.234375 70.511719 71.480469 78.210938 L 71.480469 72.992188 C 71.480469 72.992188 40.558594 44.96875 0.0507812 54.039062 "/>
<path style=" stroke:none;fill-rule:nonzero;fill:url(#linear3);" d="M 11.160156 65.191406 L 19.515625 73.589844 C 43.015625 74.027344 61.832031 84.390625 71.480469 90.992188 L 71.480469 85.769531 C 71.480469 85.769531 46.078125 62.742188 11.152344 65.183594 "/>
<path style=" stroke:none;fill-rule:nonzero;fill:url(#linear4);" d="M 104.414062 31.878906 C 104.433594 31.597656 104.441406 31.316406 104.453125 31.027344 C 104.453125 31.007812 104.453125 31 104.453125 30.980469 C 104.453125 30.691406 104.460938 30.398438 104.460938 30.101562 C 104.460938 29.792969 104.460938 29.5 104.453125 29.210938 C 104.453125 29.191406 104.453125 29.183594 104.453125 29.164062 C 104.453125 28.882812 104.433594 28.59375 104.414062 28.3125 C 104.125 23.390625 102.667969 18.78125 100.300781 14.777344 C 99.820312 13.960938 99.304688 13.179688 98.75 12.417969 C 98.734375 12.390625 98.714844 12.363281 98.699219 12.335938 C 98.515625 12.089844 98.335938 11.855469 98.152344 11.609375 C 95.34375 7.988281 91.738281 5.027344 87.585938 3.003906 C 87.277344 2.851562 86.960938 2.703125 86.636719 2.558594 C 86.609375 2.550781 86.582031 2.53125 86.542969 2.523438 C 86.234375 2.386719 85.917969 2.25 85.601562 2.125 C 85.601562 2.125 85.601562 2.125 85.59375 2.125 C 85.265625 1.996094 84.941406 1.871094 84.605469 1.75 C 84.578125 1.75 84.558594 1.734375 84.53125 1.726562 C 84.207031 1.605469 83.878906 1.496094 83.542969 1.390625 C 83.199219 1.28125 82.855469 1.179688 82.511719 1.082031 C 82.492188 1.082031 82.484375 1.082031 82.464844 1.070312 C 81.769531 0.878906 81.0625 0.707031 80.34375 0.570312 C 80.34375 0.570312 80.328125 0.570312 80.316406 0.570312 C 79.957031 0.5 79.601562 0.4375 79.238281 0.382812 C 77.699219 0.136719 76.113281 0.0078125 74.5 0.0078125 C 72.507812 0.0078125 70.558594 0.207031 68.683594 0.582031 C 68.683594 0.582031 68.664062 0.582031 68.65625 0.582031 C 67.9375 0.726562 67.230469 0.890625 66.535156 1.082031 C 66.515625 1.082031 66.507812 1.082031 66.488281 1.089844 C 66.144531 1.1875 65.789062 1.289062 65.445312 1.398438 C 65.109375 1.507812 64.785156 1.617188 64.449219 1.734375 C 64.421875 1.734375 64.402344 1.75 64.378906 1.761719 C 64.042969 1.878906 63.714844 2.007812 63.378906 2.132812 C 63.0625 2.261719 62.746094 2.394531 62.4375 2.53125 C 62.410156 2.542969 62.382812 2.558594 62.355469 2.570312 C 57.804688 4.59375 53.855469 7.726562 50.835938 11.617188 C 50.65625 11.855469 50.476562 12.101562 50.292969 12.34375 C 50.273438 12.371094 50.257812 12.398438 50.238281 12.417969 C 46.96875 16.929688 44.929688 22.394531 44.585938 28.3125 C 44.566406 28.59375 44.558594 28.882812 44.546875 29.164062 C 44.546875 29.183594 44.546875 29.191406 44.546875 29.210938 C 44.546875 29.5 44.539062 29.800781 44.539062 30.089844 C 44.539062 30.382812 44.539062 30.679688 44.546875 30.972656 C 44.546875 30.988281 44.546875 31 44.546875 31.015625 C 44.546875 31.296875 44.566406 31.589844 44.585938 31.871094 C 44.929688 37.789062 46.976562 43.253906 50.25 47.765625 C 50.265625 47.792969 50.285156 47.808594 50.300781 47.835938 C 53.382812 52.066406 57.535156 55.460938 62.363281 57.613281 C 62.390625 57.621094 62.417969 57.640625 62.445312 57.648438 C 62.765625 57.785156 63.082031 57.921875 63.398438 58.050781 C 63.609375 58.132812 63.609375 58.132812 63.398438 58.050781 C 63.722656 58.183594 64.058594 58.304688 64.394531 58.429688 C 64.414062 58.429688 64.441406 58.449219 64.457031 58.457031 C 65.128906 58.695312 65.808594 58.910156 66.496094 59.101562 C 66.507812 59.101562 66.523438 59.101562 66.542969 59.113281 C 67.242188 59.300781 67.949219 59.472656 68.664062 59.609375 C 68.664062 59.609375 68.683594 59.609375 68.691406 59.609375 C 70.574219 59.984375 72.523438 60.183594 74.507812 60.183594 C 76.492188 60.183594 78.453125 59.984375 80.335938 59.609375 C 80.335938 59.609375 80.355469 59.609375 80.363281 59.609375 C 81.078125 59.464844 81.785156 59.300781 82.484375 59.113281 C 82.492188 59.113281 82.511719 59.113281 82.53125 59.101562 C 82.882812 59.003906 83.226562 58.902344 83.570312 58.792969 C 83.90625 58.683594 84.234375 58.574219 84.570312 58.457031 C 84.597656 58.457031 84.613281 58.441406 84.640625 58.429688 C 84.976562 58.3125 85.304688 58.183594 85.636719 58.058594 C 85.957031 57.929688 86.273438 57.796875 86.582031 57.660156 C 86.609375 57.648438 86.636719 57.632812 86.664062 57.621094 C 86.980469 57.476562 87.296875 57.332031 87.613281 57.179688 C 91.765625 55.152344 95.371094 52.195312 98.179688 48.574219 C 98.363281 48.335938 98.542969 48.089844 98.726562 47.847656 C 98.742188 47.820312 98.761719 47.792969 98.777344 47.773438 C 99.332031 47.011719 99.847656 46.222656 100.320312 45.414062 C 102.683594 41.410156 104.144531 36.800781 104.433594 31.878906 M 101.042969 28.320312 L 92.460938 28.320312 C 92.390625 24.480469 92.109375 20.832031 91.648438 17.484375 C 93.640625 17.066406 95.472656 16.585938 97.113281 16.039062 C 99.351562 19.652344 100.746094 23.835938 101.035156 28.332031 Z M 94.820312 12.871094 C 93.660156 13.234375 92.398438 13.570312 91.058594 13.859375 C 90.667969 11.792969 90.195312 9.886719 89.671875 8.160156 C 91.59375 9.496094 93.324219 11.082031 94.828125 12.863281 Z M 76.53125 56.734375 L 76.53125 44.734375 C 80.445312 44.816406 84.144531 45.152344 87.476562 45.675781 C 86.742188 49.371094 85.746094 52.503906 84.585938 54.828125 C 82.078125 55.863281 79.367188 56.523438 76.539062 56.734375 Z M 64.449219 54.828125 C 63.28125 52.503906 62.292969 49.371094 61.558594 45.675781 C 64.894531 45.152344 68.589844 44.816406 72.507812 44.734375 L 72.507812 56.734375 C 69.679688 56.515625 66.96875 55.863281 64.457031 54.828125 Z M 72.480469 3.476562 L 72.480469 15.476562 C 68.5625 15.386719 64.867188 15.058594 61.53125 14.53125 C 62.265625 10.839844 63.261719 7.707031 64.421875 5.382812 C 66.933594 4.347656 69.640625 3.683594 72.46875 3.476562 Z M 76.511719 19.082031 C 80.625 19 84.53125 18.664062 88.066406 18.117188 C 88.511719 21.257812 88.792969 24.699219 88.855469 28.320312 L 76.511719 28.320312 Z M 72.480469 28.320312 L 60.136719 28.320312 C 60.207031 24.699219 60.480469 21.257812 60.925781 18.117188 C 64.457031 18.664062 68.363281 18.988281 72.480469 19.082031 Z M 72.480469 31.878906 L 72.480469 41.121094 C 68.363281 41.203125 64.457031 41.539062 60.925781 42.082031 C 60.480469 38.941406 60.199219 35.5 60.136719 31.878906 Z M 88.066406 42.082031 C 84.53125 41.539062 80.625 41.210938 76.511719 41.121094 L 76.511719 31.878906 L 88.855469 31.878906 C 88.78125 35.5 88.511719 38.933594 88.066406 42.082031 Z M 87.460938 14.53125 C 84.125 15.058594 80.425781 15.394531 76.511719 15.476562 L 76.511719 3.476562 C 79.339844 3.683594 82.050781 4.347656 84.558594 5.382812 C 85.730469 7.707031 86.714844 10.839844 87.449219 14.53125 Z M 59.347656 8.160156 C 58.820312 9.886719 58.351562 11.792969 57.960938 13.859375 C 56.621094 13.5625 55.359375 13.234375 54.199219 12.871094 C 55.703125 11.082031 57.433594 9.503906 59.355469 8.167969 Z M 51.898438 16.03125 C 53.539062 16.574219 55.367188 17.066406 57.363281 17.472656 C 56.898438 20.824219 56.609375 24.480469 56.546875 28.3125 L 47.964844 28.3125 C 48.253906 23.820312 49.660156 19.632812 51.886719 16.019531 Z M 56.546875 31.878906 C 56.621094 35.71875 56.898438 39.367188 57.363281 42.71875 C 55.367188 43.136719 53.539062 43.617188 51.898438 44.160156 C 49.660156 40.546875 48.261719 36.363281 47.972656 31.871094 L 56.554688 31.871094 Z M 54.191406 47.328125 C 55.359375 46.964844 56.609375 46.640625 57.953125 46.339844 C 58.339844 48.410156 58.8125 50.316406 59.339844 52.039062 C 57.417969 50.707031 55.6875 49.117188 54.179688 47.328125 Z M 89.644531 52.039062 C 90.167969 50.316406 90.640625 48.410156 91.03125 46.339844 C 92.371094 46.640625 93.632812 46.964844 94.792969 47.328125 C 93.285156 49.117188 91.554688 50.695312 89.632812 52.039062 Z M 97.09375 44.171875 C 95.453125 43.625 93.621094 43.136719 91.628906 42.726562 C 92.089844 39.378906 92.378906 35.71875 92.445312 31.886719 L 101.027344 31.886719 C 100.738281 36.382812 99.332031 40.566406 97.101562 44.179688 Z M 97.09375 44.171875 "/>
</g>
</svg>
